<?xml version="1.0" encoding="UTF-8"?>
<svg width="194px" height="194px" viewBox="0 0 194 194" version="1.1" xmlns="http://www.w3.org/2000/svg" xmlns:xlink="http://www.w3.org/1999/xlink">
    <!-- Generator: Sketch 52.4 (67378) - http://www.bohemiancoding.com/sketch -->
    <title>Group 9</title>
    <desc>Created with Sketch.</desc>
    <defs>
        <circle id="path-1" cx="97" cy="97" r="97"></circle>
    </defs>
    <g id="Page-1" stroke="none" stroke-width="1" fill="none" fill-rule="evenodd">
        <g id="Group-9">
            <mask id="mask-2" fill="white">
                <use xlink:href="#path-1"></use>
            </mask>
            <use id="Mask" fill="#D8D8D8" fill-rule="nonzero" xlink:href="#path-1"></use>
            <g mask="url(#mask-2)">
                <ellipse id="Oval" fill="#7ECE90" fill-rule="nonzero" cx="97" cy="96.9090909" rx="97" ry="96.9090909"></ellipse>
                <rect id="Rectangle" fill="#A6DDB2" fill-rule="nonzero" x="33.1219512" y="170.181818" width="127.756098" height="37.8181818"></rect>
                <g id="人物アイコン" transform="translate(27.000000, 24.000000)" fill="#A6DDB2">
                    <path d="M103.343306,108.86822 C97.2791242,106.581297 88.4360835,99.9026731 88.4360835,95.7449385 C88.4360835,92.9903895 88.4360835,89.549273 88.4360835,84.8325333 C91.9405895,80.899566 94.6054488,72.9152682 96.1892861,63.8644758 C99.8834877,62.5342706 101.99446,60.4052676 104.631656,51.0904579 C107.434835,41.168194 100.410319,41.5054983 100.410319,41.5054983 C106.092069,22.5327486 98.6127699,4.70192703 86.0843436,6.01097408 C77.4428545,-9.23824354 48.4990646,9.49440686 39.4301523,8.18873285 C39.4301523,13.4184816 41.5891565,17.33949 41.5891565,17.33949 C38.436682,23.3772357 39.6526799,35.416237 40.5379263,41.5054983 C40.0259912,41.4962991 33.6733142,41.5631466 36.3679656,51.0904579 C39.005465,60.4049609 41.1161333,62.5342706 44.810639,63.8644758 C46.3914362,72.9152682 49.0559916,80.899566 52.5638415,84.8325333 C52.5638415,89.549273 52.5638415,92.9903895 52.5638415,95.7449385 C52.5638415,99.9026731 43.1699538,106.906335 37.6569233,108.86822 C26.266367,112.913724 -1.72316857,124.548573 0.0835003071,146.34272 C0.516699558,151.572775 29.0272903,157 70.4998105,157 C111.969595,157 140.483226,151.572775 140.916729,146.34272 C142.723094,124.527415 114.66151,113.138491 103.343306,108.86822 Z" id="Path"></path>
                </g>
            </g>
        </g>
    </g>
</svg>