<!--?xml version="1.0" encoding="utf-8"?-->
<!-- Generator: Adobe Illustrator 18.1.1, SVG Export Plug-In . SVG Version: 6.00 Build 0)  -->

<svg version="1.1" id="_x32_" xmlns="http://www.w3.org/2000/svg" xmlns:xlink="http://www.w3.org/1999/xlink" x="0px" y="0px" viewBox="0 0 512 512" style="width: 256px; height: 256px; opacity: 1;" xml:space="preserve">
<style type="text/css">
	.st0{fill:#4B4B4B;}
</style>
<g>
	<path class="st0" d="M503.598,191.155c-4.736-18.094-11.313-35.26-19.487-51.301c-4.035-7.969-8.488-15.678-13.287-23.074
		c-3.76-5.806-7.757-11.438-11.95-16.899c-30.453-39.548-71.707-69.08-118.209-85.428c-15.349-5.405-31.264-9.362-47.556-11.737
		c-6.357-0.936-12.76-1.652-19.212-2.085c-27.141-1.896-55.037,0.52-82.737,7.773c-14.814,3.886-29.029,8.984-42.513,15.214
		c-6.797,3.139-13.445,6.545-19.856,10.243c-10.149,5.79-19.785,12.234-28.927,19.251c-34.254,26.393-61.016,60.898-78.166,99.902
		c-2.659,5.995-5.066,12.1-7.262,18.307c-2.58,7.364-4.846,14.852-6.758,22.476c-10.156,40.413-10.565,83.949,0.74,127.044
		c8.04,30.784,21.414,58.83,38.879,83.351c1.864,2.691,3.824,5.334,5.822,7.914c2.501,3.257,5.05,6.42,7.71,9.52
		c29.532,34.788,67.814,60.914,110.508,75.916c8.559,3.013,17.291,5.57,26.196,7.663l0.016-0.008
		c6.585,1.566,13.216,2.856,19.927,3.878c33.498,5.114,68.585,3.619,103.38-5.491c16.788-4.398,32.798-10.369,47.823-17.74
		c6.451-3.162,12.729-6.553,18.826-10.22c8.584-5.114,16.796-10.73,24.616-16.741c39.524-30.468,69.088-71.708,85.436-118.217
		c3.564-10.132,6.506-20.509,8.787-31.107c1.424-6.71,2.596-13.499,3.485-20.351C514.03,257.332,512.229,224.102,503.598,191.155z
		 M280.192,68.5c4.366-8.347,7.363-17,9.354-25.607c40.555,6.404,78.371,24.325,108.911,51.168
		c5.837,5.129,11.4,10.573,16.678,16.331c-8.574-0.204-17.236-0.039-25.945,0.504c-29.729,1.834-59.978,8.229-89.392,18.645
		c-6.459,2.281-12.856,4.72-19.188,7.363c-9.401-12.193-19.274-23.718-29.588-34.488c4.342-3.218,8.457-6.766,12.218-10.629
		C270.082,84.848,275.826,76.894,280.192,68.5z M201.364,47.362c22.799-5.963,45.636-8.048,67.885-6.687
		c-1.754,6.278-4.146,12.367-7.285,18.118c-6.058,11.179-14.979,20.801-26.189,28.416c-14.389-13.665-29.352-25.962-44.622-36.904
		C194.52,49.242,197.919,48.266,201.364,47.362z M94.05,113.532c20.321-23.137,45.66-42.065,75.043-54.951
		c16.379,11.415,32.49,24.419,47.918,39.051c-11.1,5.004-23.129,8.749-35.732,11.565c-31.861,7.12-64.997,8.662-96.685,15.907
		C87.607,121.138,90.762,117.292,94.05,113.532z M67.452,360.767c-8.575-15.451-15.38-32.231-20.076-50.129
		c-7.552-28.871-8.906-57.774-4.878-85.482c3.776-26.15,12.36-51.206,25.017-73.958v-0.023c4.225-1.408,8.575-2.659,13.035-3.776
		c15.679-3.965,32.624-6.246,50.326-8.496c17.693-2.266,36.212-4.422,55.124-8.662c16.206-3.627,32.318-8.882,47.06-16.592
		c9.621,10.078,18.849,20.8,27.652,32.152c-1.495,0.716-2.998,1.439-4.484,2.179c-14.46,7.293-28.266,15.994-41.38,25.718
		c-26.213,19.502-48.768,42.27-68.663,65.949c-19.872,23.759-37.077,48.579-52.292,73.509
		C84.288,328.993,75.461,344.907,67.452,360.767z M215.36,450.058c-1.07,5.79-2.227,11.517-3.548,17.071
		c-36.511-7.654-70.417-24.718-98.267-49.2c-12.587-11.045-23.924-23.593-33.734-37.431c9.472-18.81,20.03-37.722,31.72-56.493
		c14.971-24.057,31.822-47.918,50.986-70.606c19.18-22.642,40.704-44.189,65.194-62.362c12.233-9.102,25.001-17.158,38.21-23.837
		c2.58-1.282,5.2-2.557,7.82-3.784c14.939,21.312,28.407,44.465,39.964,69.096c-11.391,6.782-22.13,15.05-31.626,24.694
		c-10.707,10.872-19.612,23.208-26.74,36.125c-7.135,12.934-12.587,26.41-16.906,39.878c-8.63,27-12.988,53.888-16.978,79.472
		C219.458,425.473,217.593,437.99,215.36,450.058z M310.644,464.628c-26.646,6.97-53.354,8.654-79.102,5.712
		c1.345-5.46,2.541-10.967,3.635-16.474c2.501-12.524,4.555-25.182,6.686-37.896c4.256-25.394,8.732-51.237,16.882-76.16
		c8.064-24.859,20.187-48.759,38.706-67.451c7.545-7.678,15.986-14.357,25.057-19.982c18.205,43.521,29.746,88.158,36.723,131.12
		c3.186,19.699,5.476,39.059,7.026,57.932C349.327,451.489,330.706,459.372,310.644,464.628z M469.503,286.849
		c-6.01,41.554-24.152,80.401-51.553,111.617c-9.77,11.14-20.729,21.312-32.758,30.288c-1.235-15.844-3.06-32.019-5.522-48.461
		c-6.773-44.921-18.621-91.942-37.966-137.908c7.191-3.006,14.507-5.208,21.846-6.357c11.903-1.92,23.806-0.96,35.134,2.565
		c11.368,3.477,22.146,9.314,32.381,16.12c13.436,8.944,25.914,19.463,38.76,29.666C469.731,285.205,469.613,286.03,469.503,286.849
		z M442.614,237.578c-11.172-7.615-23.593-14.641-37.652-19.109c-13.995-4.507-29.627-5.908-44.676-3.548
		c-9.48,1.456-18.621,4.193-27.33,7.867c-11.36-24.16-24.608-46.951-39.296-68.066c4.422-1.793,8.866-3.485,13.28-5.074
		c27.692-9.976,55.926-16.12,83.65-18.126c14.058-1.023,27.983-0.992,41.6-0.024c14.515,20.541,25.654,44,32.444,69.859
		c5.129,19.62,7.402,39.264,7.041,58.554C462.588,252.423,453.068,244.744,442.614,237.578z" style="fill: rgb(75, 75, 75);"></path>
</g>
</svg>
